<svg width="340" height="340" viewBox="0 0 340 340" fill="none" xmlns="http://www.w3.org/2000/svg">
<g clip-path="url(#clip0_810_17469)">
<path d="M170.1 12.3L306.5 91V248.5L170.1 327.2L33.7 248.5V91L170.1 12.3ZM170.1 8L30 88.9V250.7L170.1 331.6L310.2 250.7V88.9L170.1 8Z" fill="white"/>
<path d="M170.1 48.8L274.9 109.3L293.9 98.4L170.1 26.9L46.3999 98.4V241.2L65.3999 230.3V109.3L170.1 48.8Z" fill="white"/>
<path d="M166 152.9C143.3 174.2 130.5 199.5 131.7 217.4H150.5H173.3C173.3 217.4 181 216.2 189.3 211.3C196.5 207.1 203.6 200 203.6 200C212.9 190.1 218.7 176.8 218.7 162.2C218.7 148.5 213.7 136 205.4 126.3C192.4 132.1 178.4 141.2 166 152.9Z" fill="white"/>
<path d="M116.1 186.8C121.2 167.2 132.8 148.2 148.6 133.3C158.8 123.7 170.6 115.9 182.6 110.4C176.6 108.2 170.1 106.9 163.4 106.9C140.1 106.9 119.3 121.9 111.5 143.3C92.1001 144.4 76.6001 160.5 76.6001 180.2C76.6001 200.6 93.2001 217.2 113.6 217.2H114.7C112.7 208.7 113.1 198.2 116.1 186.8Z" fill="white"/>
<path d="M206.6 217.4H204.9C180.2 240.3 149.2 242.7 132.4 233.7C132.9 234.3 133.4 235 134 235.6C148.6 251 187.7 242.2 206.6 217.4Z" fill="white"/>
<path d="M245.9 118.5C245.1 117.5 244 116.6 242.8 115.9C247.7 122.6 246 134.3 244.4 140.8L244.9 141.1C250.6 129.1 249.9 123.5 245.9 118.5Z" fill="white"/>
<path d="M152 137C119.4 167.6 110.7 212.2 125.1 228.2C127 230.4 129.5 232.2 132.4 233.7C117.4 214.5 132.9 177.1 162.5 149.2C190.7 122.7 228.7 107.9 242.8 115.9C242.5 115.6 242.3 115.2 242 114.9C227.6 99 184.6 106.3 152 137Z" fill="white"/>
<path d="M223 134.9H211.2C215.8 143 218.5 152.3 218.5 162.2C218.5 176.8 212.8 190.1 203.4 200C203.4 200 196.3 207.1 189.1 211.3C180.8 216.1 173.1 217.4 173.1 217.4H222C244.3 217.4 263.4 200.1 264.2 177.8C265.1 154.3 246.3 134.9 223 134.9Z" fill="white"/>
<path d="M274.8 109.3V230.3L170 290.8L65.3 230.3L46.3 241.2L170 312.6L293.8 241.2V98.4L274.8 109.3Z" fill="white"/>
</g>
<defs>
<clipPath id="clip0_810_17469">
<rect width="340" height="340" fill="white"/>
</clipPath>
</defs>
</svg>
