<?xml version="1.0" encoding="utf-8"?>
<!-- Generator: Adobe Illustrator 25.0.0, SVG Export Plug-In . SVG Version: 6.00 Build 0)  -->
<svg version="1.1" id="SVGLogo" xmlns="http://www.w3.org/2000/svg" xmlns:xlink="http://www.w3.org/1999/xlink" x="0px" y="0px"
	 viewBox="0 0 140 22" style="enable-background:new 0 0 140 22;" xml:space="preserve">
<style type="text/css">
	.st0{fill:#717074;}
</style>
<g>
	<path class="st0" d="M60.1,20.2L54,3.1c-0.1-0.2-0.2-0.5-0.2-0.8c0-0.7,0.6-1.5,1.6-1.5c0.7,0,1.3,0.5,1.6,1.3l5,14.7L67.1,2
		c0.2-0.7,0.7-1.3,1.5-1.3h0.2c0.8,0,1.4,0.5,1.6,1.3l5,14.8L80.5,2c0.2-0.6,0.6-1.2,1.5-1.2s1.5,0.6,1.5,1.4c0,0.3-0.1,0.6-0.2,0.8
		l-6.2,17.1c-0.3,0.9-0.9,1.4-1.7,1.4h-0.1c-0.7,0-1.4-0.4-1.7-1.4l-5-14.5l-5,14.5c-0.3,0.9-0.8,1.4-1.7,1.4h-0.1
		C61,21.6,60.4,21,60.1,20.2"/>
	<path class="st0" d="M104.7,2.4c0-0.8,0.6-1.6,1.5-1.6c0.8,0,1.6,0.6,1.6,1.6v3.5c1.5-3.4,4.8-4.9,6.9-4.9c0.9,0,1.5,0.6,1.5,1.6
		c0,0.8-0.5,1.4-1.4,1.6c-3.9,0.4-7.1,3.4-7.1,9.2v6.8c0,0.8-0.6,1.6-1.5,1.6c-0.8,0-1.6-0.6-1.6-1.6V2.4"/>
	<path class="st0" d="M125.9,21.7c-5.4,0-9.8-4.2-9.8-10.4v-0.1c0-5.8,4-10.4,9.5-10.4c5.9,0,9.2,4.8,9.2,10.2
		c0,0.8-0.6,1.4-1.4,1.4h-14.4c0.4,4.3,3.5,6.8,7,6.8c2.4,0,4.3-0.9,5.7-2.3c0.2-0.2,0.5-0.3,0.8-0.3c0.7,0,1.3,0.6,1.3,1.3
		c0,0.3-0.1,0.7-0.4,0.9C131.5,20.5,129.3,21.7,125.9,21.7 M131.8,10.1c-0.3-3.7-2.4-6.8-6.3-6.8c-3.5,0-6.1,2.9-6.4,6.8L131.8,10.1
		L131.8,10.1z"/>
	<path class="st0" d="M83.4,15.5L83.4,15.5c0-4.3,3.5-6.6,8.6-6.6c2.6,0,4.4,0.3,6.2,0.8V9c0-3.7-2.2-5.4-6-5.4
		c-2,0-3.2,0.2-4.7,0.9c-0.2,0.1-0.4,0.1-0.5,0.1c-0.7,0-1.4-0.6-1.4-1.3s0.3-1,0.8-1.3c2-0.8,3.5-1.2,6.1-1.2c2.8,0,5,0.7,6.5,2.2
		c1.4,1.4,2.1,3.4,2.1,5.9v11.1c0,0.8-0.6,1.5-1.5,1.5c-0.8,0-1.5-0.6-1.5-1.4v-2c-1.4,1.9-3.8,3.5-7.3,3.5
		C87.2,21.7,83.4,19.6,83.4,15.5 M98.2,13.9v-2c-1.5-0.4-3.5-0.8-6-0.8c-3.8,0-5.9,1.7-5.9,4.2v0.1c0,2.5,2.3,4,5,4
		C95.2,19.4,98.2,17.1,98.2,13.9"/>
	<path class="st0" d="M5.5,2.1C4.9,0.6,3.2,0,1.7,0.6C0.2,1.2-0.4,3,0.4,4.4l6.4,13.9c1,2.2,2.1,3.4,4.1,3.4c2.1,0,3-1.3,4.1-3.4
		c0,0,5.6-12.2,5.7-12.3c0.1-0.1,0.2-0.5,0.8-0.5c0.5,0,0.8,0.4,0.8,0.9v11.8c0,1.8,1,3.4,2.9,3.4c2,0,3-1.5,3-3.4V8.6
		c0-1.9,1.4-3.1,3.1-3.1c1.8,0,3,1.3,3,3.1v9.7c0,1.8,1,3.4,2.9,3.4c2,0,3-1.5,3-3.4V8.6c0-1.9,1.4-3.1,3.1-3.1c1.8,0,3,1.3,3,3.1
		v9.7c0,1.8,1,3.4,2.9,3.4c2,0,3-1.5,3-3.4v-11c0-4.1-3.2-6.9-7.2-6.9s-6.4,2.7-6.4,2.7c-1.4-1.7-3.1-2.7-6.2-2.7
		c-3.2,0-6.1,2.7-6.1,2.7c-1.3-1.7-3.6-2.7-5.3-2.7c-2.8,0-5.1,1.3-6.5,4.4l-4.1,9.6L5.5,2.1"/>
	<path class="st0" d="M134.9,3.3L134.9,3.3c0-1.4,1.2-2.5,2.5-2.5c1.4,0,2.5,1.2,2.5,2.5l0,0c0,1.4-1.2,2.5-2.5,2.5
		C136,5.8,134.9,4.7,134.9,3.3 M139.4,3.3L139.4,3.3c0-1.2-0.8-2-2-2s-2,0.9-2,2l0,0c0,1.2,0.8,2,2,2S139.4,4.4,139.4,3.3"/>
</g>
<g>
	<path class="st0" d="M138.4,3.4c-0.1,0.1-0.3,0.2-0.5,0.3l0.6,0.9H138l-0.6-0.9H137v0.9h-0.5V2h1.1c0.2,0,0.3,0,0.5,0.1
		c0.1,0.1,0.3,0.2,0.3,0.3c0.1,0.1,0.1,0.3,0.1,0.4C138.6,3.1,138.5,3.3,138.4,3.4z M137,3.3h0.6c0.2,0,0.3,0,0.4-0.1
		c0.1-0.1,0.1-0.2,0.1-0.3c0-0.1-0.1-0.2-0.1-0.3c-0.1-0.1-0.2-0.1-0.4-0.1H137V3.3z"/>
</g>
</svg>
